<mxfile host="Electron" agent="Mozilla/5.0 (Windows NT 10.0; Win64; x64) AppleWebKit/537.36 (KHTML, like Gecko) draw.io/28.0.6 Chrome/138.0.7204.100 Electron/37.2.3 Safari/537.36" version="28.0.6">
  <diagram name="Página-1" id="A9PW_-a_aorVZS6O-z3_">
    <mxGraphModel dx="2638" dy="572" grid="1" gridSize="10" guides="1" tooltips="1" connect="1" arrows="1" fold="1" page="1" pageScale="1" pageWidth="827" pageHeight="1169" math="0" shadow="0">
      <root>
        <mxCell id="0" />
        <mxCell id="1" parent="0" />
        <mxCell id="obFpbQmdptYm8J4LqNKV-138" style="rounded=0;orthogonalLoop=1;jettySize=auto;html=1;entryX=1;entryY=0;entryDx=0;entryDy=0;endArrow=none;endFill=0;exitX=0.316;exitY=0.683;exitDx=0;exitDy=0;exitPerimeter=0;" parent="1" source="obFpbQmdptYm8J4LqNKV-22" target="obFpbQmdptYm8J4LqNKV-36" edge="1">
          <mxGeometry relative="1" as="geometry" />
        </mxCell>
        <mxCell id="obFpbQmdptYm8J4LqNKV-22" value="d" style="strokeWidth=2;html=1;shape=mxgraph.flowchart.merge_or_storage;whiteSpace=wrap;" parent="1" vertex="1">
          <mxGeometry x="-580" y="507" width="95" height="60" as="geometry" />
        </mxCell>
        <mxCell id="obFpbQmdptYm8J4LqNKV-122" style="rounded=0;orthogonalLoop=1;jettySize=auto;html=1;entryX=0;entryY=0.5;entryDx=0;entryDy=0;endArrow=none;endFill=0;" parent="1" source="obFpbQmdptYm8J4LqNKV-23" target="obFpbQmdptYm8J4LqNKV-25" edge="1">
          <mxGeometry relative="1" as="geometry" />
        </mxCell>
        <mxCell id="obFpbQmdptYm8J4LqNKV-23" value="Teléfono" style="ellipse;shape=doubleEllipse;margin=3;whiteSpace=wrap;html=1;align=center;" parent="1" vertex="1">
          <mxGeometry x="-1150" y="280" width="100" height="40" as="geometry" />
        </mxCell>
        <mxCell id="obFpbQmdptYm8J4LqNKV-24" value="Correo" style="ellipse;shape=doubleEllipse;margin=3;whiteSpace=wrap;html=1;align=center;" parent="1" vertex="1">
          <mxGeometry x="-721.5" y="191.5" width="100" height="40" as="geometry" />
        </mxCell>
        <mxCell id="obFpbQmdptYm8J4LqNKV-100" value="" style="edgeStyle=orthogonalEdgeStyle;rounded=0;orthogonalLoop=1;jettySize=auto;html=1;startArrow=none;startFill=0;endArrow=none;endFill=0;" parent="1" source="obFpbQmdptYm8J4LqNKV-25" target="obFpbQmdptYm8J4LqNKV-99" edge="1">
          <mxGeometry relative="1" as="geometry" />
        </mxCell>
        <mxCell id="obFpbQmdptYm8J4LqNKV-25" value="Empleado" style="rounded=1;arcSize=10;whiteSpace=wrap;html=1;align=center;" parent="1" vertex="1">
          <mxGeometry x="-796.5" y="300" width="100" height="40" as="geometry" />
        </mxCell>
        <mxCell id="obFpbQmdptYm8J4LqNKV-120" style="rounded=0;orthogonalLoop=1;jettySize=auto;html=1;entryX=1;entryY=0;entryDx=0;entryDy=0;endArrow=none;endFill=0;" parent="1" source="obFpbQmdptYm8J4LqNKV-27" target="obFpbQmdptYm8J4LqNKV-25" edge="1">
          <mxGeometry relative="1" as="geometry" />
        </mxCell>
        <mxCell id="obFpbQmdptYm8J4LqNKV-27" value="&lt;u&gt;Empleado_id&lt;/u&gt;" style="ellipse;whiteSpace=wrap;html=1;align=center;" parent="1" vertex="1">
          <mxGeometry x="-648" y="231.5" width="100" height="40" as="geometry" />
        </mxCell>
        <mxCell id="obFpbQmdptYm8J4LqNKV-123" style="rounded=0;orthogonalLoop=1;jettySize=auto;html=1;endArrow=none;endFill=0;" parent="1" source="obFpbQmdptYm8J4LqNKV-28" target="obFpbQmdptYm8J4LqNKV-25" edge="1">
          <mxGeometry relative="1" as="geometry" />
        </mxCell>
        <mxCell id="obFpbQmdptYm8J4LqNKV-28" value="Nombre_completo&lt;span style=&quot;text-wrap-mode: nowrap; background-color: transparent; color: rgba(0, 0, 0, 0); font-family: monospace; font-size: 0px; text-align: start;&quot;&gt;%3CmxGraphModel%3E%3Croot%3E%3CmxCell%20id%3D%220%22%2F%3E%3CmxCell%20id%3D%221%22%20parent%3D%220%22%2F%3E%3CmxCell%20id%3D%222%22%20value%3D%22%26lt%3Bdiv%26gt%3B%26lt%3Bspan%20style%3D%26quot%3Bbackground-color%3A%20transparent%3B%20color%3A%20light-dark(rgb(0%2C%200%2C%200)%2C%20rgb(255%2C%20255%2C%20255))%3B%26quot%3B%26gt%3BAeropuerto_id%26lt%3B%2Fspan%26gt%3B%26lt%3B%2Fdiv%26gt%3B%22%20style%3D%22ellipse%3BwhiteSpace%3Dwrap%3Bhtml%3D1%3B%22%20vertex%3D%221%22%20parent%3D%221%22%3E%3CmxGeometry%20x%3D%22450%22%20y%3D%22480%22%20width%3D%22120%22%20height%3D%2280%22%20as%3D%22geometry%22%2F%3E%3C%2FmxCell%3E%3C%2Froot%3E%3C%2FmxGraphModel%3E?_&lt;/span&gt;" style="ellipse;whiteSpace=wrap;html=1;align=center;" parent="1" vertex="1">
          <mxGeometry x="-1131.5" y="360" width="130" height="55" as="geometry" />
        </mxCell>
        <mxCell id="obFpbQmdptYm8J4LqNKV-124" style="rounded=0;orthogonalLoop=1;jettySize=auto;html=1;entryX=0;entryY=0.5;entryDx=0;entryDy=0;endArrow=none;endFill=0;" parent="1" source="obFpbQmdptYm8J4LqNKV-30" target="obFpbQmdptYm8J4LqNKV-28" edge="1">
          <mxGeometry relative="1" as="geometry" />
        </mxCell>
        <mxCell id="obFpbQmdptYm8J4LqNKV-30" value="Nombres" style="ellipse;whiteSpace=wrap;html=1;align=center;" parent="1" vertex="1">
          <mxGeometry x="-1266.5" y="350" width="100" height="40" as="geometry" />
        </mxCell>
        <mxCell id="obFpbQmdptYm8J4LqNKV-125" style="rounded=0;orthogonalLoop=1;jettySize=auto;html=1;entryX=0;entryY=1;entryDx=0;entryDy=0;endArrow=none;endFill=0;" parent="1" source="obFpbQmdptYm8J4LqNKV-31" target="obFpbQmdptYm8J4LqNKV-28" edge="1">
          <mxGeometry relative="1" as="geometry" />
        </mxCell>
        <mxCell id="obFpbQmdptYm8J4LqNKV-31" value="Apellido_paterno" style="ellipse;whiteSpace=wrap;html=1;align=center;" parent="1" vertex="1">
          <mxGeometry x="-1260" y="422.5" width="100" height="40" as="geometry" />
        </mxCell>
        <mxCell id="obFpbQmdptYm8J4LqNKV-32" value="Apellido_materno" style="ellipse;whiteSpace=wrap;html=1;align=center;" parent="1" vertex="1">
          <mxGeometry x="-1140" y="440" width="100" height="40" as="geometry" />
        </mxCell>
        <mxCell id="obFpbQmdptYm8J4LqNKV-33" value="Fecha_nacimiento" style="ellipse;whiteSpace=wrap;html=1;align=center;" parent="1" vertex="1">
          <mxGeometry x="-981.5" y="432" width="143" height="40" as="geometry" />
        </mxCell>
        <mxCell id="obFpbQmdptYm8J4LqNKV-110" value="" style="edgeStyle=orthogonalEdgeStyle;rounded=0;orthogonalLoop=1;jettySize=auto;html=1;endArrow=none;endFill=0;startArrow=none;startFill=0;" parent="1" source="obFpbQmdptYm8J4LqNKV-34" target="obFpbQmdptYm8J4LqNKV-109" edge="1">
          <mxGeometry relative="1" as="geometry" />
        </mxCell>
        <mxCell id="obFpbQmdptYm8J4LqNKV-34" value="Piloto" style="rounded=1;arcSize=10;whiteSpace=wrap;html=1;align=center;" parent="1" vertex="1">
          <mxGeometry x="-335" y="567" width="100" height="40" as="geometry" />
        </mxCell>
        <mxCell id="obFpbQmdptYm8J4LqNKV-114" value="" style="edgeStyle=orthogonalEdgeStyle;rounded=0;orthogonalLoop=1;jettySize=auto;html=1;endArrow=none;endFill=0;" parent="1" source="obFpbQmdptYm8J4LqNKV-36" target="obFpbQmdptYm8J4LqNKV-113" edge="1">
          <mxGeometry relative="1" as="geometry" />
        </mxCell>
        <mxCell id="obFpbQmdptYm8J4LqNKV-36" value="Sobrecargo" style="rounded=1;arcSize=10;whiteSpace=wrap;html=1;align=center;" parent="1" vertex="1">
          <mxGeometry x="-850" y="570" width="100" height="40" as="geometry" />
        </mxCell>
        <mxCell id="obFpbQmdptYm8J4LqNKV-38" value="horas_vuelo" style="ellipse;whiteSpace=wrap;html=1;align=center;dashed=1;" parent="1" vertex="1">
          <mxGeometry x="-290" y="472" width="100" height="40" as="geometry" />
        </mxCell>
        <mxCell id="obFpbQmdptYm8J4LqNKV-144" style="rounded=0;orthogonalLoop=1;jettySize=auto;html=1;entryX=1;entryY=0.25;entryDx=0;entryDy=0;endArrow=none;endFill=0;" parent="1" source="obFpbQmdptYm8J4LqNKV-39" target="obFpbQmdptYm8J4LqNKV-34" edge="1">
          <mxGeometry relative="1" as="geometry" />
        </mxCell>
        <mxCell id="obFpbQmdptYm8J4LqNKV-39" value="licencia" style="ellipse;whiteSpace=wrap;html=1;align=center;" parent="1" vertex="1">
          <mxGeometry x="-160" y="507" width="100" height="40" as="geometry" />
        </mxCell>
        <mxCell id="obFpbQmdptYm8J4LqNKV-145" style="rounded=0;orthogonalLoop=1;jettySize=auto;html=1;entryX=1;entryY=0.75;entryDx=0;entryDy=0;endArrow=none;endFill=0;" parent="1" source="obFpbQmdptYm8J4LqNKV-41" target="obFpbQmdptYm8J4LqNKV-34" edge="1">
          <mxGeometry relative="1" as="geometry" />
        </mxCell>
        <mxCell id="obFpbQmdptYm8J4LqNKV-41" value="fecha_vencimiento_licencia" style="ellipse;whiteSpace=wrap;html=1;align=center;dashed=1;" parent="1" vertex="1">
          <mxGeometry x="-180" y="577" width="180" height="50" as="geometry" />
        </mxCell>
        <mxCell id="obFpbQmdptYm8J4LqNKV-146" style="rounded=0;orthogonalLoop=1;jettySize=auto;html=1;entryX=0.75;entryY=1;entryDx=0;entryDy=0;endArrow=none;endFill=0;" parent="1" source="obFpbQmdptYm8J4LqNKV-43" target="obFpbQmdptYm8J4LqNKV-34" edge="1">
          <mxGeometry relative="1" as="geometry" />
        </mxCell>
        <mxCell id="obFpbQmdptYm8J4LqNKV-43" value="certificacion_tipo_aeronave" style="ellipse;shape=doubleEllipse;margin=3;whiteSpace=wrap;html=1;align=center;" parent="1" vertex="1">
          <mxGeometry x="-235" y="657" width="190" height="40" as="geometry" />
        </mxCell>
        <mxCell id="obFpbQmdptYm8J4LqNKV-45" value="idiomas" style="ellipse;shape=doubleEllipse;margin=3;whiteSpace=wrap;html=1;align=center;" parent="1" vertex="1">
          <mxGeometry x="-950" y="630" width="100" height="40" as="geometry" />
        </mxCell>
        <mxCell id="obFpbQmdptYm8J4LqNKV-46" value="certficaciones_seguridad" style="ellipse;shape=doubleEllipse;margin=3;whiteSpace=wrap;html=1;align=center;" parent="1" vertex="1">
          <mxGeometry x="-750" y="640" width="170" height="40" as="geometry" />
        </mxCell>
        <mxCell id="obFpbQmdptYm8J4LqNKV-129" style="rounded=0;orthogonalLoop=1;jettySize=auto;html=1;entryX=0.5;entryY=1;entryDx=0;entryDy=0;endArrow=none;endFill=0;" parent="1" source="obFpbQmdptYm8J4LqNKV-48" target="obFpbQmdptYm8J4LqNKV-50" edge="1">
          <mxGeometry relative="1" as="geometry" />
        </mxCell>
        <mxCell id="obFpbQmdptYm8J4LqNKV-176" value="" style="edgeStyle=orthogonalEdgeStyle;rounded=0;orthogonalLoop=1;jettySize=auto;html=1;endArrow=none;endFill=0;startArrow=open;startFill=0;" parent="1" source="obFpbQmdptYm8J4LqNKV-48" target="obFpbQmdptYm8J4LqNKV-175" edge="1">
          <mxGeometry relative="1" as="geometry" />
        </mxCell>
        <mxCell id="obFpbQmdptYm8J4LqNKV-48" value="Aerolínea" style="rounded=1;arcSize=10;whiteSpace=wrap;html=1;align=center;" parent="1" vertex="1">
          <mxGeometry x="50" y="300" width="100" height="40" as="geometry" />
        </mxCell>
        <mxCell id="obFpbQmdptYm8J4LqNKV-131" style="rounded=0;orthogonalLoop=1;jettySize=auto;html=1;entryX=0;entryY=0;entryDx=0;entryDy=0;endArrow=none;endFill=0;" parent="1" source="obFpbQmdptYm8J4LqNKV-49" target="obFpbQmdptYm8J4LqNKV-48" edge="1">
          <mxGeometry relative="1" as="geometry" />
        </mxCell>
        <mxCell id="obFpbQmdptYm8J4LqNKV-49" value="&lt;u&gt;Aerolínea_id&lt;/u&gt;" style="ellipse;whiteSpace=wrap;html=1;align=center;" parent="1" vertex="1">
          <mxGeometry x="-70" y="245" width="100" height="40" as="geometry" />
        </mxCell>
        <mxCell id="obFpbQmdptYm8J4LqNKV-50" value="Razón_social" style="ellipse;whiteSpace=wrap;html=1;align=center;" parent="1" vertex="1">
          <mxGeometry x="50" y="230" width="100" height="40" as="geometry" />
        </mxCell>
        <mxCell id="obFpbQmdptYm8J4LqNKV-130" style="rounded=0;orthogonalLoop=1;jettySize=auto;html=1;entryX=1;entryY=0;entryDx=0;entryDy=0;endArrow=none;endFill=0;" parent="1" source="obFpbQmdptYm8J4LqNKV-51" target="obFpbQmdptYm8J4LqNKV-48" edge="1">
          <mxGeometry relative="1" as="geometry" />
        </mxCell>
        <mxCell id="obFpbQmdptYm8J4LqNKV-51" value="País_origen" style="ellipse;whiteSpace=wrap;html=1;align=center;" parent="1" vertex="1">
          <mxGeometry x="170" y="245" width="100" height="40" as="geometry" />
        </mxCell>
        <mxCell id="obFpbQmdptYm8J4LqNKV-117" value="" style="edgeStyle=orthogonalEdgeStyle;rounded=0;orthogonalLoop=1;jettySize=auto;html=1;endArrow=none;endFill=0;startArrow=open;startFill=0;" parent="1" source="obFpbQmdptYm8J4LqNKV-52" target="obFpbQmdptYm8J4LqNKV-116" edge="1">
          <mxGeometry relative="1" as="geometry" />
        </mxCell>
        <mxCell id="obFpbQmdptYm8J4LqNKV-52" value="Cliente" style="rounded=1;arcSize=10;whiteSpace=wrap;html=1;align=center;" parent="1" vertex="1">
          <mxGeometry x="875" y="1330" width="100" height="40" as="geometry" />
        </mxCell>
        <mxCell id="obFpbQmdptYm8J4LqNKV-199" style="rounded=0;orthogonalLoop=1;jettySize=auto;html=1;entryX=0.25;entryY=1;entryDx=0;entryDy=0;endArrow=none;endFill=0;" parent="1" source="obFpbQmdptYm8J4LqNKV-54" target="obFpbQmdptYm8J4LqNKV-52" edge="1">
          <mxGeometry relative="1" as="geometry" />
        </mxCell>
        <mxCell id="obFpbQmdptYm8J4LqNKV-54" value="Nombre_completo&lt;span style=&quot;text-wrap-mode: nowrap; background-color: transparent; color: rgba(0, 0, 0, 0); font-family: monospace; font-size: 0px; text-align: start;&quot;&gt;%3CmxGraphModel%3E%3Croot%3E%3CmxCell%20id%3D%220%22%2F%3E%3CmxCell%20id%3D%221%22%20parent%3D%220%22%2F%3E%3CmxCell%20id%3D%222%22%20value%3D%22%26lt%3Bdiv%26gt%3B%26lt%3Bspan%20style%3D%26quot%3Bbackground-color%3A%20transparent%3B%20color%3A%20light-dark(rgb(0%2C%200%2C%200)%2C%20rgb(255%2C%20255%2C%20255))%3B%26quot%3B%26gt%3BAeropuerto_id%26lt%3B%2Fspan%26gt%3B%26lt%3B%2Fdiv%26gt%3B%22%20style%3D%22ellipse%3BwhiteSpace%3Dwrap%3Bhtml%3D1%3B%22%20vertex%3D%221%22%20parent%3D%221%22%3E%3CmxGeometry%20x%3D%22450%22%20y%3D%22480%22%20width%3D%22120%22%20height%3D%2280%22%20as%3D%22geometry%22%2F%3E%3C%2FmxCell%3E%3C%2Froot%3E%3C%2FmxGraphModel%3E?_&lt;/span&gt;" style="ellipse;whiteSpace=wrap;html=1;align=center;" parent="1" vertex="1">
          <mxGeometry x="767.5" y="1412.5" width="130" height="55" as="geometry" />
        </mxCell>
        <mxCell id="obFpbQmdptYm8J4LqNKV-200" style="rounded=0;orthogonalLoop=1;jettySize=auto;html=1;entryX=0;entryY=0.5;entryDx=0;entryDy=0;endArrow=none;endFill=0;" parent="1" source="obFpbQmdptYm8J4LqNKV-55" target="obFpbQmdptYm8J4LqNKV-54" edge="1">
          <mxGeometry relative="1" as="geometry" />
        </mxCell>
        <mxCell id="obFpbQmdptYm8J4LqNKV-55" value="Nombres" style="ellipse;whiteSpace=wrap;html=1;align=center;" parent="1" vertex="1">
          <mxGeometry x="620" y="1417.5" width="100" height="40" as="geometry" />
        </mxCell>
        <mxCell id="obFpbQmdptYm8J4LqNKV-56" value="Apellido_paterno" style="ellipse;whiteSpace=wrap;html=1;align=center;" parent="1" vertex="1">
          <mxGeometry x="695" y="1487.5" width="100" height="40" as="geometry" />
        </mxCell>
        <mxCell id="obFpbQmdptYm8J4LqNKV-202" style="rounded=0;orthogonalLoop=1;jettySize=auto;html=1;endArrow=none;endFill=0;" parent="1" source="obFpbQmdptYm8J4LqNKV-57" edge="1">
          <mxGeometry relative="1" as="geometry">
            <mxPoint x="850" y="1470" as="targetPoint" />
          </mxGeometry>
        </mxCell>
        <mxCell id="obFpbQmdptYm8J4LqNKV-57" value="Apellido_materno" style="ellipse;whiteSpace=wrap;html=1;align=center;" parent="1" vertex="1">
          <mxGeometry x="810" y="1507.5" width="100" height="40" as="geometry" />
        </mxCell>
        <mxCell id="obFpbQmdptYm8J4LqNKV-194" style="rounded=0;orthogonalLoop=1;jettySize=auto;html=1;entryX=0.25;entryY=0;entryDx=0;entryDy=0;endArrow=none;endFill=0;" parent="1" source="obFpbQmdptYm8J4LqNKV-58" target="obFpbQmdptYm8J4LqNKV-52" edge="1">
          <mxGeometry relative="1" as="geometry" />
        </mxCell>
        <mxCell id="obFpbQmdptYm8J4LqNKV-58" value="&lt;u&gt;Cliente_id&lt;/u&gt;" style="ellipse;whiteSpace=wrap;html=1;align=center;" parent="1" vertex="1">
          <mxGeometry x="790" y="1245" width="100" height="40" as="geometry" />
        </mxCell>
        <mxCell id="obFpbQmdptYm8J4LqNKV-59" value="Aeropuerto" style="rounded=1;arcSize=10;whiteSpace=wrap;html=1;align=center;" parent="1" vertex="1">
          <mxGeometry x="744" y="567" width="100" height="40" as="geometry" />
        </mxCell>
        <mxCell id="obFpbQmdptYm8J4LqNKV-167" style="rounded=0;orthogonalLoop=1;jettySize=auto;html=1;entryX=0.5;entryY=0;entryDx=0;entryDy=0;endArrow=none;endFill=0;" parent="1" source="obFpbQmdptYm8J4LqNKV-60" target="obFpbQmdptYm8J4LqNKV-59" edge="1">
          <mxGeometry relative="1" as="geometry" />
        </mxCell>
        <mxCell id="obFpbQmdptYm8J4LqNKV-60" value="&lt;u&gt;Aeropuerto_id&lt;/u&gt;" style="ellipse;whiteSpace=wrap;html=1;align=center;" parent="1" vertex="1">
          <mxGeometry x="744" y="470" width="100" height="40" as="geometry" />
        </mxCell>
        <mxCell id="obFpbQmdptYm8J4LqNKV-168" style="rounded=0;orthogonalLoop=1;jettySize=auto;html=1;entryX=1;entryY=0;entryDx=0;entryDy=0;endArrow=none;endFill=0;" parent="1" source="obFpbQmdptYm8J4LqNKV-63" target="obFpbQmdptYm8J4LqNKV-59" edge="1">
          <mxGeometry relative="1" as="geometry" />
        </mxCell>
        <mxCell id="obFpbQmdptYm8J4LqNKV-63" value="Nombre&lt;span style=&quot;text-wrap-mode: nowrap; color: rgba(0, 0, 0, 0); font-family: monospace; font-size: 0px; text-align: start;&quot;&gt;%3CmxGraphModel%3E%3Croot%3E%3CmxCell%20id%3D%220%22%2F%3E%3CmxCell%20id%3D%221%22%20parent%3D%220%22%2F%3E%3CmxCell%20id%3D%222%22%20value%3D%22%26lt%3Bdiv%26gt%3B%26lt%3Bspan%20style%3D%26quot%3Bbackground-color%3A%20transparent%3B%20color%3A%20light-dark(rgb(0%2C%200%2C%200)%2C%20rgb(255%2C%20255%2C%20255))%3B%26quot%3B%26gt%3BAeropuerto_id%26lt%3B%2Fspan%26gt%3B%26lt%3B%2Fdiv%26gt%3B%22%20style%3D%22ellipse%3BwhiteSpace%3Dwrap%3Bhtml%3D1%3B%22%20vertex%3D%221%22%20parent%3D%221%22%3E%3CmxGeometry%20x%3D%22450%22%20y%3D%22480%22%20width%3D%22120%22%20height%3D%2280%22%20as%3D%22geometry%22%2F%3E%3C%2FmxCell%3E%3C%2Froot%3E%3C%2FmxGraphModel%3E&lt;/span&gt;" style="ellipse;whiteSpace=wrap;html=1;align=center;" parent="1" vertex="1">
          <mxGeometry x="880" y="534.5" width="100" height="40" as="geometry" />
        </mxCell>
        <mxCell id="obFpbQmdptYm8J4LqNKV-169" style="rounded=0;orthogonalLoop=1;jettySize=auto;html=1;entryX=1;entryY=1;entryDx=0;entryDy=0;endArrow=none;endFill=0;" parent="1" source="obFpbQmdptYm8J4LqNKV-64" target="obFpbQmdptYm8J4LqNKV-59" edge="1">
          <mxGeometry relative="1" as="geometry" />
        </mxCell>
        <mxCell id="obFpbQmdptYm8J4LqNKV-64" value="Ciudad" style="ellipse;whiteSpace=wrap;html=1;align=center;" parent="1" vertex="1">
          <mxGeometry x="870" y="624.5" width="100" height="40" as="geometry" />
        </mxCell>
        <mxCell id="obFpbQmdptYm8J4LqNKV-170" style="rounded=0;orthogonalLoop=1;jettySize=auto;html=1;entryX=0.5;entryY=1;entryDx=0;entryDy=0;endArrow=none;endFill=0;" parent="1" source="obFpbQmdptYm8J4LqNKV-65" target="obFpbQmdptYm8J4LqNKV-59" edge="1">
          <mxGeometry relative="1" as="geometry" />
        </mxCell>
        <mxCell id="obFpbQmdptYm8J4LqNKV-65" value="País" style="ellipse;whiteSpace=wrap;html=1;align=center;" parent="1" vertex="1">
          <mxGeometry x="744" y="664.5" width="104" height="40" as="geometry" />
        </mxCell>
        <mxCell id="obFpbQmdptYm8J4LqNKV-195" style="rounded=0;orthogonalLoop=1;jettySize=auto;html=1;entryX=0.75;entryY=0;entryDx=0;entryDy=0;endArrow=none;endFill=0;" parent="1" source="obFpbQmdptYm8J4LqNKV-66" target="obFpbQmdptYm8J4LqNKV-52" edge="1">
          <mxGeometry relative="1" as="geometry" />
        </mxCell>
        <mxCell id="obFpbQmdptYm8J4LqNKV-66" value="Fecha_nacimiento" style="ellipse;whiteSpace=wrap;html=1;align=center;" parent="1" vertex="1">
          <mxGeometry x="940" y="1245" width="143" height="40" as="geometry" />
        </mxCell>
        <mxCell id="obFpbQmdptYm8J4LqNKV-196" style="rounded=0;orthogonalLoop=1;jettySize=auto;html=1;entryX=1;entryY=0.25;entryDx=0;entryDy=0;endArrow=none;endFill=0;" parent="1" source="obFpbQmdptYm8J4LqNKV-67" target="obFpbQmdptYm8J4LqNKV-52" edge="1">
          <mxGeometry relative="1" as="geometry" />
        </mxCell>
        <mxCell id="obFpbQmdptYm8J4LqNKV-67" value="edad" style="ellipse;whiteSpace=wrap;html=1;align=center;dashed=1;" parent="1" vertex="1">
          <mxGeometry x="1055" y="1320" width="100" height="40" as="geometry" />
        </mxCell>
        <mxCell id="obFpbQmdptYm8J4LqNKV-198" style="rounded=0;orthogonalLoop=1;jettySize=auto;html=1;entryX=0.75;entryY=1;entryDx=0;entryDy=0;endArrow=none;endFill=0;" parent="1" source="obFpbQmdptYm8J4LqNKV-68" target="obFpbQmdptYm8J4LqNKV-52" edge="1">
          <mxGeometry relative="1" as="geometry" />
        </mxCell>
        <mxCell id="obFpbQmdptYm8J4LqNKV-68" value="Teléfono" style="ellipse;shape=doubleEllipse;margin=3;whiteSpace=wrap;html=1;align=center;" parent="1" vertex="1">
          <mxGeometry x="945" y="1440" width="100" height="40" as="geometry" />
        </mxCell>
        <mxCell id="obFpbQmdptYm8J4LqNKV-197" style="rounded=0;orthogonalLoop=1;jettySize=auto;html=1;entryX=1;entryY=1;entryDx=0;entryDy=0;endArrow=none;endFill=0;" parent="1" source="obFpbQmdptYm8J4LqNKV-69" target="obFpbQmdptYm8J4LqNKV-52" edge="1">
          <mxGeometry relative="1" as="geometry" />
        </mxCell>
        <mxCell id="obFpbQmdptYm8J4LqNKV-69" value="Correo" style="ellipse;shape=doubleEllipse;margin=3;whiteSpace=wrap;html=1;align=center;" parent="1" vertex="1">
          <mxGeometry x="1025" y="1385" width="100" height="40" as="geometry" />
        </mxCell>
        <mxCell id="obFpbQmdptYm8J4LqNKV-134" style="rounded=0;orthogonalLoop=1;jettySize=auto;html=1;entryX=0;entryY=1;entryDx=0;entryDy=0;endArrow=none;endFill=0;exitX=1;exitY=0;exitDx=0;exitDy=0;" parent="1" source="obFpbQmdptYm8J4LqNKV-70" target="obFpbQmdptYm8J4LqNKV-78" edge="1">
          <mxGeometry relative="1" as="geometry" />
        </mxCell>
        <mxCell id="obFpbQmdptYm8J4LqNKV-160" style="edgeStyle=orthogonalEdgeStyle;rounded=0;orthogonalLoop=1;jettySize=auto;html=1;entryX=0.5;entryY=1;entryDx=0;entryDy=0;endArrow=none;endFill=0;" parent="1" target="obFpbQmdptYm8J4LqNKV-104" edge="1">
          <mxGeometry relative="1" as="geometry">
            <mxPoint x="414" y="932.5" as="sourcePoint" />
          </mxGeometry>
        </mxCell>
        <mxCell id="obFpbQmdptYm8J4LqNKV-182" value="" style="edgeStyle=orthogonalEdgeStyle;rounded=0;orthogonalLoop=1;jettySize=auto;html=1;endArrow=none;endFill=0;" parent="1" target="obFpbQmdptYm8J4LqNKV-181" edge="1">
          <mxGeometry relative="1" as="geometry">
            <mxPoint x="365" y="935.5" as="sourcePoint" />
            <Array as="points">
              <mxPoint x="365" y="783" />
              <mxPoint x="365" y="783" />
            </Array>
          </mxGeometry>
        </mxCell>
        <mxCell id="obFpbQmdptYm8J4LqNKV-70" value="Vuelo" style="rounded=1;arcSize=10;whiteSpace=wrap;html=1;align=center;" parent="1" vertex="1">
          <mxGeometry x="340" y="932.5" width="100" height="40" as="geometry" />
        </mxCell>
        <mxCell id="obFpbQmdptYm8J4LqNKV-71" value="&lt;u&gt;Número_vuelo&lt;/u&gt;" style="ellipse;whiteSpace=wrap;html=1;align=center;" parent="1" vertex="1">
          <mxGeometry x="225" y="830" width="100" height="40" as="geometry" />
        </mxCell>
        <mxCell id="obFpbQmdptYm8J4LqNKV-72" value="Fecha_salida" style="ellipse;whiteSpace=wrap;html=1;align=center;" parent="1" vertex="1">
          <mxGeometry x="560" y="865" width="100" height="40" as="geometry" />
        </mxCell>
        <mxCell id="obFpbQmdptYm8J4LqNKV-73" value="Hora_salida" style="ellipse;whiteSpace=wrap;html=1;align=center;" parent="1" vertex="1">
          <mxGeometry x="630" y="925" width="100" height="40" as="geometry" />
        </mxCell>
        <mxCell id="obFpbQmdptYm8J4LqNKV-74" value="Tiempo_salida" style="ellipse;whiteSpace=wrap;html=1;align=center;" parent="1" vertex="1">
          <mxGeometry x="500" y="915" width="100" height="40" as="geometry" />
        </mxCell>
        <mxCell id="obFpbQmdptYm8J4LqNKV-153" style="rounded=0;orthogonalLoop=1;jettySize=auto;html=1;endArrow=none;endFill=0;" parent="1" source="obFpbQmdptYm8J4LqNKV-75" target="obFpbQmdptYm8J4LqNKV-77" edge="1">
          <mxGeometry relative="1" as="geometry" />
        </mxCell>
        <mxCell id="obFpbQmdptYm8J4LqNKV-75" value="Fecha_llegada" style="ellipse;whiteSpace=wrap;html=1;align=center;" parent="1" vertex="1">
          <mxGeometry x="600" y="1022.5" width="100" height="40" as="geometry" />
        </mxCell>
        <mxCell id="obFpbQmdptYm8J4LqNKV-76" value="Hora_llegada" style="ellipse;whiteSpace=wrap;html=1;align=center;" parent="1" vertex="1">
          <mxGeometry x="500" y="1072.5" width="100" height="40" as="geometry" />
        </mxCell>
        <mxCell id="obFpbQmdptYm8J4LqNKV-77" value="Tiempo_llegada" style="ellipse;whiteSpace=wrap;html=1;align=center;" parent="1" vertex="1">
          <mxGeometry x="460" y="1002.5" width="100" height="40" as="geometry" />
        </mxCell>
        <mxCell id="obFpbQmdptYm8J4LqNKV-78" value="Duración" style="ellipse;whiteSpace=wrap;html=1;align=center;dashed=1;" parent="1" vertex="1">
          <mxGeometry x="490" y="820" width="100" height="40" as="geometry" />
        </mxCell>
        <mxCell id="obFpbQmdptYm8J4LqNKV-149" style="rounded=0;orthogonalLoop=1;jettySize=auto;html=1;entryX=0;entryY=0.75;entryDx=0;entryDy=0;endArrow=none;endFill=0;" parent="1" source="obFpbQmdptYm8J4LqNKV-80" target="obFpbQmdptYm8J4LqNKV-70" edge="1">
          <mxGeometry relative="1" as="geometry" />
        </mxCell>
        <mxCell id="obFpbQmdptYm8J4LqNKV-80" value="Estado" style="ellipse;whiteSpace=wrap;html=1;align=center;" parent="1" vertex="1">
          <mxGeometry x="110" y="942.5" width="100" height="40" as="geometry" />
        </mxCell>
        <mxCell id="obFpbQmdptYm8J4LqNKV-148" style="rounded=0;orthogonalLoop=1;jettySize=auto;html=1;entryX=0;entryY=0.5;entryDx=0;entryDy=0;endArrow=none;endFill=0;" parent="1" source="obFpbQmdptYm8J4LqNKV-82" target="obFpbQmdptYm8J4LqNKV-70" edge="1">
          <mxGeometry relative="1" as="geometry" />
        </mxCell>
        <mxCell id="obFpbQmdptYm8J4LqNKV-82" value="Tipo_vuelo" style="ellipse;whiteSpace=wrap;html=1;align=center;dashed=1;" parent="1" vertex="1">
          <mxGeometry x="145" y="882.5" width="100" height="40" as="geometry" />
        </mxCell>
        <mxCell id="obFpbQmdptYm8J4LqNKV-186" value="" style="edgeStyle=orthogonalEdgeStyle;rounded=0;orthogonalLoop=1;jettySize=auto;html=1;endArrow=none;endFill=0;" parent="1" source="obFpbQmdptYm8J4LqNKV-83" target="obFpbQmdptYm8J4LqNKV-185" edge="1">
          <mxGeometry relative="1" as="geometry">
            <Array as="points">
              <mxPoint x="227" y="1310" />
              <mxPoint x="227" y="1310" />
            </Array>
          </mxGeometry>
        </mxCell>
        <mxCell id="obFpbQmdptYm8J4LqNKV-83" value="Boleto" style="rounded=1;arcSize=10;whiteSpace=wrap;html=1;align=center;" parent="1" vertex="1">
          <mxGeometry x="183" y="1330" width="100" height="40" as="geometry" />
        </mxCell>
        <mxCell id="obFpbQmdptYm8J4LqNKV-188" style="rounded=0;orthogonalLoop=1;jettySize=auto;html=1;entryX=0;entryY=0.25;entryDx=0;entryDy=0;endArrow=none;endFill=0;" parent="1" source="obFpbQmdptYm8J4LqNKV-84" target="obFpbQmdptYm8J4LqNKV-83" edge="1">
          <mxGeometry relative="1" as="geometry" />
        </mxCell>
        <mxCell id="obFpbQmdptYm8J4LqNKV-84" value="Número_asiento" style="ellipse;whiteSpace=wrap;html=1;align=center;" parent="1" vertex="1">
          <mxGeometry x="40" y="1280" width="121.5" height="40" as="geometry" />
        </mxCell>
        <mxCell id="obFpbQmdptYm8J4LqNKV-193" style="rounded=0;orthogonalLoop=1;jettySize=auto;html=1;entryX=1;entryY=1;entryDx=0;entryDy=0;endArrow=none;endFill=0;" parent="1" source="obFpbQmdptYm8J4LqNKV-86" target="obFpbQmdptYm8J4LqNKV-83" edge="1">
          <mxGeometry relative="1" as="geometry" />
        </mxCell>
        <mxCell id="obFpbQmdptYm8J4LqNKV-86" value="&lt;u&gt;Boleto_id&lt;/u&gt;" style="ellipse;whiteSpace=wrap;html=1;align=center;" parent="1" vertex="1">
          <mxGeometry x="315" y="1400" width="100" height="40" as="geometry" />
        </mxCell>
        <mxCell id="obFpbQmdptYm8J4LqNKV-189" style="rounded=0;orthogonalLoop=1;jettySize=auto;html=1;entryX=0;entryY=1;entryDx=0;entryDy=0;endArrow=none;endFill=0;" parent="1" source="obFpbQmdptYm8J4LqNKV-87" target="obFpbQmdptYm8J4LqNKV-83" edge="1">
          <mxGeometry relative="1" as="geometry" />
        </mxCell>
        <mxCell id="obFpbQmdptYm8J4LqNKV-87" value="Clase" style="ellipse;whiteSpace=wrap;html=1;align=center;" parent="1" vertex="1">
          <mxGeometry x="30" y="1350" width="100" height="40" as="geometry" />
        </mxCell>
        <mxCell id="obFpbQmdptYm8J4LqNKV-191" style="rounded=0;orthogonalLoop=1;jettySize=auto;html=1;entryX=0.25;entryY=1;entryDx=0;entryDy=0;endArrow=none;endFill=0;" parent="1" source="obFpbQmdptYm8J4LqNKV-88" target="obFpbQmdptYm8J4LqNKV-83" edge="1">
          <mxGeometry relative="1" as="geometry" />
        </mxCell>
        <mxCell id="obFpbQmdptYm8J4LqNKV-88" value="Precio" style="ellipse;whiteSpace=wrap;html=1;align=center;" parent="1" vertex="1">
          <mxGeometry x="80" y="1430" width="100" height="40" as="geometry" />
        </mxCell>
        <mxCell id="obFpbQmdptYm8J4LqNKV-89" value="Fecha_compra" style="ellipse;whiteSpace=wrap;html=1;align=center;" parent="1" vertex="1">
          <mxGeometry x="200" y="1460" width="110" height="40" as="geometry" />
        </mxCell>
        <mxCell id="obFpbQmdptYm8J4LqNKV-140" style="edgeStyle=orthogonalEdgeStyle;rounded=0;orthogonalLoop=1;jettySize=auto;html=1;entryX=0;entryY=0.5;entryDx=0;entryDy=0;endArrow=open;endFill=0;" parent="1" source="obFpbQmdptYm8J4LqNKV-99" target="obFpbQmdptYm8J4LqNKV-48" edge="1">
          <mxGeometry relative="1" as="geometry" />
        </mxCell>
        <mxCell id="obFpbQmdptYm8J4LqNKV-99" value="Contratar" style="rhombus;whiteSpace=wrap;html=1;rounded=1;arcSize=10;" parent="1" vertex="1">
          <mxGeometry x="-290" y="280" width="80" height="80" as="geometry" />
        </mxCell>
        <mxCell id="obFpbQmdptYm8J4LqNKV-157" style="edgeStyle=orthogonalEdgeStyle;rounded=0;orthogonalLoop=1;jettySize=auto;html=1;entryX=0;entryY=0.5;entryDx=0;entryDy=0;endArrow=open;endFill=0;" parent="1" source="obFpbQmdptYm8J4LqNKV-104" target="obFpbQmdptYm8J4LqNKV-59" edge="1">
          <mxGeometry relative="1" as="geometry" />
        </mxCell>
        <mxCell id="obFpbQmdptYm8J4LqNKV-104" value="Administrar" style="rhombus;whiteSpace=wrap;html=1;rounded=1;arcSize=10;" parent="1" vertex="1">
          <mxGeometry x="374" y="547" width="80" height="80" as="geometry" />
        </mxCell>
        <mxCell id="obFpbQmdptYm8J4LqNKV-111" style="edgeStyle=orthogonalEdgeStyle;rounded=0;orthogonalLoop=1;jettySize=auto;html=1;entryX=0.75;entryY=1;entryDx=0;entryDy=0;endArrow=none;endFill=0;" parent="1" source="obFpbQmdptYm8J4LqNKV-109" target="obFpbQmdptYm8J4LqNKV-70" edge="1">
          <mxGeometry relative="1" as="geometry" />
        </mxCell>
        <mxCell id="obFpbQmdptYm8J4LqNKV-109" value="Pilotar" style="rhombus;whiteSpace=wrap;html=1;rounded=1;arcSize=10;" parent="1" vertex="1">
          <mxGeometry x="-325" y="1030" width="80" height="80" as="geometry" />
        </mxCell>
        <mxCell id="obFpbQmdptYm8J4LqNKV-115" style="edgeStyle=orthogonalEdgeStyle;rounded=0;orthogonalLoop=1;jettySize=auto;html=1;entryX=0.25;entryY=1;entryDx=0;entryDy=0;endArrow=none;endFill=0;" parent="1" source="obFpbQmdptYm8J4LqNKV-113" target="obFpbQmdptYm8J4LqNKV-70" edge="1">
          <mxGeometry relative="1" as="geometry" />
        </mxCell>
        <mxCell id="obFpbQmdptYm8J4LqNKV-113" value="Atender" style="rhombus;whiteSpace=wrap;html=1;rounded=1;arcSize=10;" parent="1" vertex="1">
          <mxGeometry x="-840" y="1100" width="80" height="80" as="geometry" />
        </mxCell>
        <mxCell id="obFpbQmdptYm8J4LqNKV-118" style="edgeStyle=orthogonalEdgeStyle;rounded=0;orthogonalLoop=1;jettySize=auto;html=1;entryX=1;entryY=0.5;entryDx=0;entryDy=0;endArrow=none;endFill=0;" parent="1" source="obFpbQmdptYm8J4LqNKV-116" target="obFpbQmdptYm8J4LqNKV-83" edge="1">
          <mxGeometry relative="1" as="geometry" />
        </mxCell>
        <mxCell id="obFpbQmdptYm8J4LqNKV-116" value="Comprar" style="rhombus;whiteSpace=wrap;html=1;rounded=1;arcSize=10;" parent="1" vertex="1">
          <mxGeometry x="560" y="1310" width="80" height="80" as="geometry" />
        </mxCell>
        <mxCell id="obFpbQmdptYm8J4LqNKV-119" style="rounded=0;orthogonalLoop=1;jettySize=auto;html=1;entryX=0.6;entryY=-0.025;entryDx=0;entryDy=0;entryPerimeter=0;endArrow=none;endFill=0;" parent="1" source="obFpbQmdptYm8J4LqNKV-24" target="obFpbQmdptYm8J4LqNKV-25" edge="1">
          <mxGeometry relative="1" as="geometry" />
        </mxCell>
        <mxCell id="obFpbQmdptYm8J4LqNKV-127" style="rounded=0;orthogonalLoop=1;jettySize=auto;html=1;entryX=0.608;entryY=1.036;entryDx=0;entryDy=0;entryPerimeter=0;endArrow=none;endFill=0;" parent="1" source="obFpbQmdptYm8J4LqNKV-32" target="obFpbQmdptYm8J4LqNKV-28" edge="1">
          <mxGeometry relative="1" as="geometry" />
        </mxCell>
        <mxCell id="obFpbQmdptYm8J4LqNKV-132" style="rounded=0;orthogonalLoop=1;jettySize=auto;html=1;entryX=0.71;entryY=0.075;entryDx=0;entryDy=0;entryPerimeter=0;endArrow=none;endFill=0;" parent="1" source="obFpbQmdptYm8J4LqNKV-36" target="obFpbQmdptYm8J4LqNKV-45" edge="1">
          <mxGeometry relative="1" as="geometry" />
        </mxCell>
        <mxCell id="obFpbQmdptYm8J4LqNKV-133" style="rounded=0;orthogonalLoop=1;jettySize=auto;html=1;entryX=0.318;entryY=0.125;entryDx=0;entryDy=0;entryPerimeter=0;endArrow=none;endFill=0;" parent="1" source="obFpbQmdptYm8J4LqNKV-36" target="obFpbQmdptYm8J4LqNKV-46" edge="1">
          <mxGeometry relative="1" as="geometry" />
        </mxCell>
        <mxCell id="obFpbQmdptYm8J4LqNKV-135" style="rounded=0;orthogonalLoop=1;jettySize=auto;html=1;entryX=0.08;entryY=0.7;entryDx=0;entryDy=0;entryPerimeter=0;endArrow=none;endFill=0;" parent="1" source="obFpbQmdptYm8J4LqNKV-70" target="obFpbQmdptYm8J4LqNKV-74" edge="1">
          <mxGeometry relative="1" as="geometry" />
        </mxCell>
        <mxCell id="obFpbQmdptYm8J4LqNKV-136" style="rounded=0;orthogonalLoop=1;jettySize=auto;html=1;entryX=0.72;entryY=0.1;entryDx=0;entryDy=0;entryPerimeter=0;endArrow=none;endFill=0;" parent="1" source="obFpbQmdptYm8J4LqNKV-72" target="obFpbQmdptYm8J4LqNKV-74" edge="1">
          <mxGeometry relative="1" as="geometry" />
        </mxCell>
        <mxCell id="obFpbQmdptYm8J4LqNKV-139" style="rounded=0;orthogonalLoop=1;jettySize=auto;html=1;entryX=0.737;entryY=0.633;entryDx=0;entryDy=0;entryPerimeter=0;endArrow=none;endFill=0;" parent="1" source="obFpbQmdptYm8J4LqNKV-34" target="obFpbQmdptYm8J4LqNKV-22" edge="1">
          <mxGeometry relative="1" as="geometry" />
        </mxCell>
        <mxCell id="obFpbQmdptYm8J4LqNKV-141" style="rounded=0;orthogonalLoop=1;jettySize=auto;html=1;entryX=0.5;entryY=0;entryDx=0;entryDy=0;entryPerimeter=0;endArrow=none;endFill=0;exitX=1;exitY=1;exitDx=0;exitDy=0;" parent="1" source="obFpbQmdptYm8J4LqNKV-25" target="obFpbQmdptYm8J4LqNKV-22" edge="1">
          <mxGeometry relative="1" as="geometry">
            <mxPoint x="-632.59943977591" y="344.75" as="sourcePoint" />
            <mxPoint x="-621.5" y="503.25" as="targetPoint" />
          </mxGeometry>
        </mxCell>
        <mxCell id="obFpbQmdptYm8J4LqNKV-143" style="rounded=0;orthogonalLoop=1;jettySize=auto;html=1;entryX=0.67;entryY=0;entryDx=0;entryDy=0;entryPerimeter=0;endArrow=none;endFill=0;" parent="1" source="obFpbQmdptYm8J4LqNKV-38" target="obFpbQmdptYm8J4LqNKV-34" edge="1">
          <mxGeometry relative="1" as="geometry" />
        </mxCell>
        <mxCell id="obFpbQmdptYm8J4LqNKV-147" style="rounded=0;orthogonalLoop=1;jettySize=auto;html=1;entryX=0.08;entryY=0.038;entryDx=0;entryDy=0;entryPerimeter=0;endArrow=none;endFill=0;" parent="1" source="obFpbQmdptYm8J4LqNKV-71" target="obFpbQmdptYm8J4LqNKV-70" edge="1">
          <mxGeometry relative="1" as="geometry" />
        </mxCell>
        <mxCell id="obFpbQmdptYm8J4LqNKV-151" style="rounded=0;orthogonalLoop=1;jettySize=auto;html=1;entryX=0.91;entryY=0.963;entryDx=0;entryDy=0;entryPerimeter=0;endArrow=none;endFill=0;" parent="1" source="obFpbQmdptYm8J4LqNKV-77" target="obFpbQmdptYm8J4LqNKV-70" edge="1">
          <mxGeometry relative="1" as="geometry" />
        </mxCell>
        <mxCell id="obFpbQmdptYm8J4LqNKV-152" style="rounded=0;orthogonalLoop=1;jettySize=auto;html=1;entryX=0.92;entryY=0.675;entryDx=0;entryDy=0;entryPerimeter=0;endArrow=none;endFill=0;" parent="1" source="obFpbQmdptYm8J4LqNKV-73" target="obFpbQmdptYm8J4LqNKV-74" edge="1">
          <mxGeometry relative="1" as="geometry" />
        </mxCell>
        <mxCell id="obFpbQmdptYm8J4LqNKV-154" style="rounded=0;orthogonalLoop=1;jettySize=auto;html=1;entryX=0.67;entryY=1.013;entryDx=0;entryDy=0;entryPerimeter=0;endArrow=none;endFill=0;" parent="1" source="obFpbQmdptYm8J4LqNKV-76" target="obFpbQmdptYm8J4LqNKV-77" edge="1">
          <mxGeometry relative="1" as="geometry" />
        </mxCell>
        <mxCell id="obFpbQmdptYm8J4LqNKV-156" value="Un vuelo puede tener copiloto" style="whiteSpace=wrap;html=1;shape=mxgraph.basic.document;fillColor=#fff2cc;strokeColor=#d6b656;" parent="1" vertex="1">
          <mxGeometry x="-413" y="657" width="100" height="100" as="geometry" />
        </mxCell>
        <mxCell id="obFpbQmdptYm8J4LqNKV-159" value="Decide dónde (pistas), a qué hora, en qué acceso" style="whiteSpace=wrap;html=1;shape=mxgraph.basic.document;fillColor=#fff2cc;strokeColor=#d6b656;" parent="1" vertex="1">
          <mxGeometry x="450" y="627" width="100" height="100" as="geometry" />
        </mxCell>
        <mxCell id="obFpbQmdptYm8J4LqNKV-161" value="Avión" style="rounded=1;arcSize=10;whiteSpace=wrap;html=1;align=center;" parent="1" vertex="1">
          <mxGeometry x="530" y="300" width="100" height="40" as="geometry" />
        </mxCell>
        <mxCell id="obFpbQmdptYm8J4LqNKV-162" value="&lt;u&gt;Avión_id&lt;/u&gt;" style="ellipse;whiteSpace=wrap;html=1;align=center;" parent="1" vertex="1">
          <mxGeometry x="510" y="222.5" width="100" height="40" as="geometry" />
        </mxCell>
        <mxCell id="obFpbQmdptYm8J4LqNKV-163" value="Capacidad_total" style="ellipse;whiteSpace=wrap;html=1;align=center;" parent="1" vertex="1">
          <mxGeometry x="632.5" y="232.5" width="115" height="40" as="geometry" />
        </mxCell>
        <mxCell id="obFpbQmdptYm8J4LqNKV-180" style="rounded=0;orthogonalLoop=1;jettySize=auto;html=1;entryX=1;entryY=0.5;entryDx=0;entryDy=0;endArrow=none;endFill=0;" parent="1" source="obFpbQmdptYm8J4LqNKV-166" target="obFpbQmdptYm8J4LqNKV-161" edge="1">
          <mxGeometry relative="1" as="geometry" />
        </mxCell>
        <mxCell id="obFpbQmdptYm8J4LqNKV-166" value="Modelo" style="ellipse;whiteSpace=wrap;html=1;align=center;" parent="1" vertex="1">
          <mxGeometry x="685" y="302.5" width="115" height="40" as="geometry" />
        </mxCell>
        <mxCell id="obFpbQmdptYm8J4LqNKV-177" style="edgeStyle=orthogonalEdgeStyle;rounded=0;orthogonalLoop=1;jettySize=auto;html=1;entryX=0;entryY=0.5;entryDx=0;entryDy=0;endArrow=none;endFill=0;" parent="1" source="obFpbQmdptYm8J4LqNKV-175" target="obFpbQmdptYm8J4LqNKV-161" edge="1">
          <mxGeometry relative="1" as="geometry" />
        </mxCell>
        <mxCell id="obFpbQmdptYm8J4LqNKV-175" value="Poseer" style="rhombus;whiteSpace=wrap;html=1;rounded=1;arcSize=10;" parent="1" vertex="1">
          <mxGeometry x="310" y="280" width="80" height="80" as="geometry" />
        </mxCell>
        <mxCell id="obFpbQmdptYm8J4LqNKV-178" style="rounded=0;orthogonalLoop=1;jettySize=auto;html=1;entryX=0.41;entryY=0.025;entryDx=0;entryDy=0;entryPerimeter=0;endArrow=none;endFill=0;" parent="1" source="obFpbQmdptYm8J4LqNKV-162" target="obFpbQmdptYm8J4LqNKV-161" edge="1">
          <mxGeometry relative="1" as="geometry" />
        </mxCell>
        <mxCell id="obFpbQmdptYm8J4LqNKV-179" style="rounded=0;orthogonalLoop=1;jettySize=auto;html=1;entryX=1;entryY=0;entryDx=0;entryDy=0;endArrow=none;endFill=0;" parent="1" source="obFpbQmdptYm8J4LqNKV-163" target="obFpbQmdptYm8J4LqNKV-161" edge="1">
          <mxGeometry relative="1" as="geometry" />
        </mxCell>
        <mxCell id="obFpbQmdptYm8J4LqNKV-183" style="edgeStyle=orthogonalEdgeStyle;rounded=0;orthogonalLoop=1;jettySize=auto;html=1;entryX=0.5;entryY=1;entryDx=0;entryDy=0;endArrow=open;endFill=0;" parent="1" source="obFpbQmdptYm8J4LqNKV-181" target="obFpbQmdptYm8J4LqNKV-161" edge="1">
          <mxGeometry relative="1" as="geometry" />
        </mxCell>
        <mxCell id="obFpbQmdptYm8J4LqNKV-181" value="Asignar" style="rhombus;whiteSpace=wrap;html=1;rounded=1;arcSize=10;" parent="1" vertex="1">
          <mxGeometry x="325" y="452.5" width="80" height="80" as="geometry" />
        </mxCell>
        <mxCell id="obFpbQmdptYm8J4LqNKV-187" style="edgeStyle=orthogonalEdgeStyle;rounded=0;orthogonalLoop=1;jettySize=auto;html=1;entryX=0.5;entryY=1;entryDx=0;entryDy=0;endArrow=open;endFill=0;" parent="1" source="obFpbQmdptYm8J4LqNKV-185" target="obFpbQmdptYm8J4LqNKV-70" edge="1">
          <mxGeometry relative="1" as="geometry" />
        </mxCell>
        <mxCell id="obFpbQmdptYm8J4LqNKV-185" value="Incluir" style="rhombus;whiteSpace=wrap;html=1;rounded=1;arcSize=10;" parent="1" vertex="1">
          <mxGeometry x="180" y="1190" width="93" height="80" as="geometry" />
        </mxCell>
        <mxCell id="obFpbQmdptYm8J4LqNKV-192" style="rounded=0;orthogonalLoop=1;jettySize=auto;html=1;entryX=0.58;entryY=1;entryDx=0;entryDy=0;entryPerimeter=0;endArrow=none;endFill=0;" parent="1" source="obFpbQmdptYm8J4LqNKV-89" target="obFpbQmdptYm8J4LqNKV-83" edge="1">
          <mxGeometry relative="1" as="geometry" />
        </mxCell>
        <mxCell id="obFpbQmdptYm8J4LqNKV-201" style="rounded=0;orthogonalLoop=1;jettySize=auto;html=1;entryX=0.212;entryY=0.864;entryDx=0;entryDy=0;entryPerimeter=0;endArrow=none;endFill=0;" parent="1" source="obFpbQmdptYm8J4LqNKV-56" target="obFpbQmdptYm8J4LqNKV-54" edge="1">
          <mxGeometry relative="1" as="geometry" />
        </mxCell>
        <mxCell id="ayjCAUZTDBPEH2389OsR-1" style="rounded=0;orthogonalLoop=1;jettySize=auto;html=1;entryX=1;entryY=0;entryDx=0;entryDy=0;endArrow=none;endFill=0;" edge="1" parent="1" source="ayjCAUZTDBPEH2389OsR-2" target="obFpbQmdptYm8J4LqNKV-99">
          <mxGeometry relative="1" as="geometry">
            <mxPoint x="-220" y="292.5" as="targetPoint" />
          </mxGeometry>
        </mxCell>
        <mxCell id="ayjCAUZTDBPEH2389OsR-2" value="Fecha_ingreso" style="ellipse;whiteSpace=wrap;html=1;align=center;" vertex="1" parent="1">
          <mxGeometry x="-250" y="222.5" width="100" height="40" as="geometry" />
        </mxCell>
        <mxCell id="ayjCAUZTDBPEH2389OsR-7" value="Dirección" style="ellipse;whiteSpace=wrap;html=1;align=center;" vertex="1" parent="1">
          <mxGeometry x="-930" y="184" width="100" height="40" as="geometry" />
        </mxCell>
        <mxCell id="ayjCAUZTDBPEH2389OsR-8" value="País" style="ellipse;whiteSpace=wrap;html=1;align=center;" vertex="1" parent="1">
          <mxGeometry x="-1011.5" y="231.5" width="100" height="40" as="geometry" />
        </mxCell>
        <mxCell id="ayjCAUZTDBPEH2389OsR-9" value="Delegación/Municipio" style="ellipse;whiteSpace=wrap;html=1;align=center;" vertex="1" parent="1">
          <mxGeometry x="-1140" y="141.5" width="128.5" height="40" as="geometry" />
        </mxCell>
        <mxCell id="ayjCAUZTDBPEH2389OsR-10" value="Ciudad" style="ellipse;whiteSpace=wrap;html=1;align=center;" vertex="1" parent="1">
          <mxGeometry x="-1101.5" y="191.5" width="100" height="40" as="geometry" />
        </mxCell>
        <mxCell id="ayjCAUZTDBPEH2389OsR-11" value="CP" style="ellipse;whiteSpace=wrap;html=1;align=center;" vertex="1" parent="1">
          <mxGeometry x="-1081.5" y="81.5" width="100" height="40" as="geometry" />
        </mxCell>
        <mxCell id="ayjCAUZTDBPEH2389OsR-12" value="Calle" style="ellipse;whiteSpace=wrap;html=1;align=center;" vertex="1" parent="1">
          <mxGeometry x="-991.5" y="41.5" width="100" height="40" as="geometry" />
        </mxCell>
        <mxCell id="ayjCAUZTDBPEH2389OsR-13" value="Colonia" style="ellipse;whiteSpace=wrap;html=1;align=center;" vertex="1" parent="1">
          <mxGeometry x="-881.5" y="61.5" width="100" height="40" as="geometry" />
        </mxCell>
        <mxCell id="ayjCAUZTDBPEH2389OsR-14" value="Número_exterior" style="ellipse;whiteSpace=wrap;html=1;align=center;" vertex="1" parent="1">
          <mxGeometry x="-781.5" y="81.5" width="100" height="40" as="geometry" />
        </mxCell>
        <mxCell id="ayjCAUZTDBPEH2389OsR-15" style="rounded=0;orthogonalLoop=1;jettySize=auto;html=1;entryX=0.924;entryY=0.266;entryDx=0;entryDy=0;entryPerimeter=0;endArrow=none;endFill=0;" edge="1" parent="1" source="ayjCAUZTDBPEH2389OsR-14" target="ayjCAUZTDBPEH2389OsR-7">
          <mxGeometry relative="1" as="geometry" />
        </mxCell>
        <mxCell id="ayjCAUZTDBPEH2389OsR-16" style="rounded=0;orthogonalLoop=1;jettySize=auto;html=1;entryX=0.729;entryY=-0.02;entryDx=0;entryDy=0;entryPerimeter=0;endArrow=none;endFill=0;" edge="1" parent="1" source="ayjCAUZTDBPEH2389OsR-13" target="ayjCAUZTDBPEH2389OsR-7">
          <mxGeometry relative="1" as="geometry" />
        </mxCell>
        <mxCell id="ayjCAUZTDBPEH2389OsR-17" style="rounded=0;orthogonalLoop=1;jettySize=auto;html=1;entryX=0.541;entryY=-0.005;entryDx=0;entryDy=0;entryPerimeter=0;endArrow=none;endFill=0;" edge="1" parent="1" source="ayjCAUZTDBPEH2389OsR-12" target="ayjCAUZTDBPEH2389OsR-7">
          <mxGeometry relative="1" as="geometry" />
        </mxCell>
        <mxCell id="ayjCAUZTDBPEH2389OsR-18" style="rounded=0;orthogonalLoop=1;jettySize=auto;html=1;entryX=0.232;entryY=0.08;entryDx=0;entryDy=0;entryPerimeter=0;endArrow=none;endFill=0;" edge="1" parent="1" source="ayjCAUZTDBPEH2389OsR-11" target="ayjCAUZTDBPEH2389OsR-7">
          <mxGeometry relative="1" as="geometry" />
        </mxCell>
        <mxCell id="ayjCAUZTDBPEH2389OsR-19" style="rounded=0;orthogonalLoop=1;jettySize=auto;html=1;entryX=0.021;entryY=0.338;entryDx=0;entryDy=0;entryPerimeter=0;endArrow=none;endFill=0;" edge="1" parent="1" source="ayjCAUZTDBPEH2389OsR-9" target="ayjCAUZTDBPEH2389OsR-7">
          <mxGeometry relative="1" as="geometry" />
        </mxCell>
        <mxCell id="ayjCAUZTDBPEH2389OsR-20" style="rounded=0;orthogonalLoop=1;jettySize=auto;html=1;entryX=0.055;entryY=0.695;entryDx=0;entryDy=0;entryPerimeter=0;endArrow=none;endFill=0;" edge="1" parent="1" source="ayjCAUZTDBPEH2389OsR-10" target="ayjCAUZTDBPEH2389OsR-7">
          <mxGeometry relative="1" as="geometry" />
        </mxCell>
        <mxCell id="ayjCAUZTDBPEH2389OsR-21" style="rounded=0;orthogonalLoop=1;jettySize=auto;html=1;entryX=0.312;entryY=0.995;entryDx=0;entryDy=0;entryPerimeter=0;endArrow=none;endFill=0;" edge="1" parent="1" source="ayjCAUZTDBPEH2389OsR-8" target="ayjCAUZTDBPEH2389OsR-7">
          <mxGeometry relative="1" as="geometry" />
        </mxCell>
        <mxCell id="ayjCAUZTDBPEH2389OsR-23" style="rounded=0;orthogonalLoop=1;jettySize=auto;html=1;entryX=1;entryY=0.5;entryDx=0;entryDy=0;endArrow=none;endFill=0;" edge="1" parent="1" source="ayjCAUZTDBPEH2389OsR-22" target="ayjCAUZTDBPEH2389OsR-7">
          <mxGeometry relative="1" as="geometry" />
        </mxCell>
        <mxCell id="ayjCAUZTDBPEH2389OsR-22" value="Número_interior" style="ellipse;whiteSpace=wrap;html=1;align=center;" vertex="1" parent="1">
          <mxGeometry x="-751.5" y="131.5" width="100" height="40" as="geometry" />
        </mxCell>
        <mxCell id="ayjCAUZTDBPEH2389OsR-24" style="rounded=0;orthogonalLoop=1;jettySize=auto;html=1;entryX=0.183;entryY=-0.079;entryDx=0;entryDy=0;entryPerimeter=0;endArrow=none;endFill=0;" edge="1" parent="1" source="ayjCAUZTDBPEH2389OsR-7" target="obFpbQmdptYm8J4LqNKV-25">
          <mxGeometry relative="1" as="geometry" />
        </mxCell>
        <mxCell id="ayjCAUZTDBPEH2389OsR-26" value="No es multivaluado porque solo se requiere la dirección de una id oficial que solo tiene una" style="whiteSpace=wrap;html=1;shape=mxgraph.basic.document;fillColor=#fff2cc;strokeColor=#d6b656;" vertex="1" parent="1">
          <mxGeometry x="-651.5" y="31.5" width="120" height="120" as="geometry" />
        </mxCell>
        <mxCell id="ayjCAUZTDBPEH2389OsR-31" style="rounded=0;orthogonalLoop=1;jettySize=auto;html=1;entryX=0.75;entryY=1;entryDx=0;entryDy=0;endArrow=none;endFill=0;" edge="1" parent="1" source="ayjCAUZTDBPEH2389OsR-29" target="obFpbQmdptYm8J4LqNKV-25">
          <mxGeometry relative="1" as="geometry" />
        </mxCell>
        <mxCell id="ayjCAUZTDBPEH2389OsR-29" value="Identificón_único_población" style="ellipse;whiteSpace=wrap;html=1;align=center;" vertex="1" parent="1">
          <mxGeometry x="-804.5" y="432" width="183" height="40" as="geometry" />
        </mxCell>
        <mxCell id="ayjCAUZTDBPEH2389OsR-30" style="rounded=0;orthogonalLoop=1;jettySize=auto;html=1;entryX=0.796;entryY=0.175;entryDx=0;entryDy=0;entryPerimeter=0;endArrow=none;endFill=0;" edge="1" parent="1" source="obFpbQmdptYm8J4LqNKV-25" target="obFpbQmdptYm8J4LqNKV-33">
          <mxGeometry relative="1" as="geometry" />
        </mxCell>
      </root>
    </mxGraphModel>
  </diagram>
</mxfile>
